<mxfile host="app.diagrams.net" modified="2021-04-15T16:27:24.550Z" agent="5.0 (Windows NT 10.0; Win64; x64) AppleWebKit/537.36 (KHTML, like Gecko) Chrome/90.0.4430.72 Safari/537.36" etag="R0W0psKpaceN0CcL7a8v" version="14.6.0" type="github">
  <diagram id="T5PGpS6BYMSO8JL507mn" name="Page-1">
    <mxGraphModel dx="6390" dy="3814" grid="1" gridSize="10" guides="1" tooltips="1" connect="1" arrows="1" fold="1" page="1" pageScale="1" pageWidth="827" pageHeight="1169" math="0" shadow="0">
      <root>
        <mxCell id="0" />
        <mxCell id="1" parent="0" />
        <mxCell id="m3cECUpOEf3iN09a0m4X-1" value="" style="ellipse;html=1;shape=startState;fillColor=#000000;strokeColor=#ff0000;" vertex="1" parent="1">
          <mxGeometry x="400" y="-10" width="30" height="30" as="geometry" />
        </mxCell>
        <mxCell id="m3cECUpOEf3iN09a0m4X-2" value="" style="edgeStyle=orthogonalEdgeStyle;html=1;verticalAlign=bottom;endArrow=open;endSize=8;strokeColor=#ff0000;entryX=0.5;entryY=0;entryDx=0;entryDy=0;" edge="1" source="m3cECUpOEf3iN09a0m4X-1" parent="1" target="m3cECUpOEf3iN09a0m4X-94">
          <mxGeometry relative="1" as="geometry">
            <mxPoint x="415" y="50" as="targetPoint" />
          </mxGeometry>
        </mxCell>
        <mxCell id="m3cECUpOEf3iN09a0m4X-3" value="" style="ellipse;html=1;shape=endState;fillColor=#000000;strokeColor=#ff0000;" vertex="1" parent="1">
          <mxGeometry x="290" y="530" width="30" height="30" as="geometry" />
        </mxCell>
        <mxCell id="m3cECUpOEf3iN09a0m4X-4" value="&lt;div&gt;&lt;span&gt;				&lt;/span&gt;printf(&quot;==================================================================\n&quot;);&lt;/div&gt;&lt;div&gt;&lt;span&gt;				&lt;/span&gt;printf(&quot;\t\t Admin\n&quot;);&lt;/div&gt;&lt;div&gt;&lt;span&gt;				&lt;/span&gt;printf(&quot;\t\t МЕНЮ:\n&quot;);&lt;/div&gt;&lt;div&gt;&lt;span&gt;				&lt;/span&gt;printf(&quot;==================================================================\n&quot;);&lt;/div&gt;&lt;div&gt;&lt;span&gt;				&lt;/span&gt;printf(&quot;\t1&amp;nbsp; - Добавить Компьютер\n&quot;);&lt;/div&gt;&lt;div&gt;&lt;span&gt;				&lt;/span&gt;printf(&quot;\t2&amp;nbsp; - Добавить Комплектующие\n&quot;);&lt;/div&gt;&lt;div&gt;&lt;span&gt;				&lt;/span&gt;printf(&quot;\t3&amp;nbsp; - Удалить Компьютер\n&quot;);&lt;/div&gt;&lt;div&gt;&lt;span&gt;				&lt;/span&gt;printf(&quot;\t4&amp;nbsp; - Удалить Комплектующие\n&quot;);&lt;/div&gt;&lt;div&gt;&lt;span&gt;				&lt;/span&gt;printf(&quot;\t5&amp;nbsp; - Нанять Сотрудника\n&quot;);&lt;/div&gt;&lt;div&gt;&lt;span&gt;				&lt;/span&gt;printf(&quot;\t6&amp;nbsp; - Уволить Сотрудника\n&quot;);&lt;/div&gt;&lt;div&gt;&lt;span&gt;				&lt;/span&gt;printf(&quot;\t7&amp;nbsp; - Информация о Сотрудниках\n&quot;);&lt;/div&gt;&lt;div&gt;&lt;span&gt;				&lt;/span&gt;printf(&quot;\t8&amp;nbsp; - Список товаров\n&quot;);&lt;/div&gt;&lt;div&gt;&lt;span&gt;				&lt;/span&gt;printf(&quot;\t9&amp;nbsp; - Список проданых сборок\n&quot;);&lt;/div&gt;&lt;div&gt;&lt;span&gt;				&lt;/span&gt;printf(&quot;\t10 - Список проданых комплектующих\n&quot;);&lt;/div&gt;&lt;div&gt;&lt;span&gt;				&lt;/span&gt;printf(&quot;\t0&amp;nbsp; - Выход\n&quot;);&lt;/div&gt;&lt;div&gt;&lt;span&gt;				&lt;/span&gt;printf(&quot;==================================================================\n&quot;);&lt;/div&gt;&lt;div&gt;&lt;span&gt;				&lt;/span&gt;printf(&quot;&amp;gt;&amp;gt;&amp;gt;&quot;);&lt;/div&gt;&lt;div&gt;&lt;span&gt;				&lt;/span&gt;scanf(&quot;%i&quot;, &amp;amp;menu);&lt;/div&gt;&lt;div&gt;&lt;span&gt;				&lt;/span&gt;system(&quot;cls&quot;);&lt;/div&gt;" style="rounded=1;whiteSpace=wrap;html=1;arcSize=18;fontColor=#000000;fillColor=#ffffc0;strokeColor=#ff0000;" vertex="1" parent="1">
          <mxGeometry x="125" y="130" width="580" height="290" as="geometry" />
        </mxCell>
        <mxCell id="m3cECUpOEf3iN09a0m4X-5" value="" style="edgeStyle=orthogonalEdgeStyle;html=1;verticalAlign=bottom;endArrow=open;endSize=8;strokeColor=#ff0000;entryX=0.5;entryY=0;entryDx=0;entryDy=0;" edge="1" source="m3cECUpOEf3iN09a0m4X-4" parent="1" target="m3cECUpOEf3iN09a0m4X-8">
          <mxGeometry relative="1" as="geometry">
            <mxPoint x="370" y="660" as="targetPoint" />
            <Array as="points">
              <mxPoint x="414" y="430" />
              <mxPoint x="414" y="430" />
            </Array>
          </mxGeometry>
        </mxCell>
        <mxCell id="m3cECUpOEf3iN09a0m4X-8" value="menu == 0" style="rhombus;whiteSpace=wrap;html=1;fillColor=#ffffc0;strokeColor=#ff0000;" vertex="1" parent="1">
          <mxGeometry x="334" y="450" width="160" height="80" as="geometry" />
        </mxCell>
        <mxCell id="m3cECUpOEf3iN09a0m4X-9" value="no" style="edgeStyle=orthogonalEdgeStyle;html=1;align=left;verticalAlign=bottom;endArrow=open;endSize=8;strokeColor=#ff0000;entryX=0.5;entryY=0;entryDx=0;entryDy=0;" edge="1" source="m3cECUpOEf3iN09a0m4X-8" parent="1" target="m3cECUpOEf3iN09a0m4X-14">
          <mxGeometry x="-1" relative="1" as="geometry">
            <mxPoint x="410" y="540" as="targetPoint" />
            <Array as="points">
              <mxPoint x="520" y="490" />
              <mxPoint x="520" y="540" />
              <mxPoint x="414" y="540" />
            </Array>
          </mxGeometry>
        </mxCell>
        <mxCell id="m3cECUpOEf3iN09a0m4X-10" value="yes" style="edgeStyle=orthogonalEdgeStyle;html=1;align=left;verticalAlign=top;endArrow=open;endSize=8;strokeColor=#ff0000;entryX=0.5;entryY=0;entryDx=0;entryDy=0;" edge="1" source="m3cECUpOEf3iN09a0m4X-8" parent="1" target="m3cECUpOEf3iN09a0m4X-3">
          <mxGeometry x="-0.6832" y="-30" relative="1" as="geometry">
            <mxPoint x="370" y="755" as="targetPoint" />
            <Array as="points">
              <mxPoint x="305" y="490" />
            </Array>
            <mxPoint as="offset" />
          </mxGeometry>
        </mxCell>
        <mxCell id="m3cECUpOEf3iN09a0m4X-14" value="menu == 1" style="rhombus;whiteSpace=wrap;html=1;fillColor=#ffffc0;strokeColor=#ff0000;" vertex="1" parent="1">
          <mxGeometry x="334" y="579.5" width="160" height="80" as="geometry" />
        </mxCell>
        <mxCell id="m3cECUpOEf3iN09a0m4X-15" value="no" style="edgeStyle=orthogonalEdgeStyle;html=1;align=left;verticalAlign=bottom;endArrow=open;endSize=8;strokeColor=#ff0000;entryX=0.5;entryY=0;entryDx=0;entryDy=0;" edge="1" parent="1" source="m3cECUpOEf3iN09a0m4X-14" target="m3cECUpOEf3iN09a0m4X-18">
          <mxGeometry x="-1" relative="1" as="geometry">
            <mxPoint x="510" y="729.5" as="targetPoint" />
            <Array as="points">
              <mxPoint x="520" y="620" />
              <mxPoint x="520" y="760" />
              <mxPoint x="414" y="760" />
            </Array>
          </mxGeometry>
        </mxCell>
        <mxCell id="m3cECUpOEf3iN09a0m4X-16" value="yes" style="edgeStyle=orthogonalEdgeStyle;html=1;align=left;verticalAlign=top;endArrow=open;endSize=8;strokeColor=#ff0000;" edge="1" parent="1" source="m3cECUpOEf3iN09a0m4X-14">
          <mxGeometry x="-0.6832" y="-30" relative="1" as="geometry">
            <mxPoint x="305" y="680" as="targetPoint" />
            <Array as="points">
              <mxPoint x="305" y="619.5" />
            </Array>
            <mxPoint as="offset" />
          </mxGeometry>
        </mxCell>
        <mxCell id="m3cECUpOEf3iN09a0m4X-18" value="menu == 2" style="rhombus;whiteSpace=wrap;html=1;fillColor=#ffffc0;strokeColor=#ff0000;" vertex="1" parent="1">
          <mxGeometry x="334" y="810" width="160" height="80" as="geometry" />
        </mxCell>
        <mxCell id="m3cECUpOEf3iN09a0m4X-19" value="no" style="edgeStyle=orthogonalEdgeStyle;html=1;align=left;verticalAlign=bottom;endArrow=open;endSize=8;strokeColor=#ff0000;" edge="1" parent="1" source="m3cECUpOEf3iN09a0m4X-18">
          <mxGeometry x="-1" relative="1" as="geometry">
            <mxPoint x="415" y="1040" as="targetPoint" />
            <Array as="points">
              <mxPoint x="540" y="850" />
              <mxPoint x="540" y="970" />
              <mxPoint x="415" y="970" />
            </Array>
          </mxGeometry>
        </mxCell>
        <mxCell id="m3cECUpOEf3iN09a0m4X-20" value="yes" style="edgeStyle=orthogonalEdgeStyle;html=1;align=left;verticalAlign=top;endArrow=open;endSize=8;strokeColor=#ff0000;entryX=0.5;entryY=0;entryDx=0;entryDy=0;" edge="1" parent="1" source="m3cECUpOEf3iN09a0m4X-18" target="m3cECUpOEf3iN09a0m4X-26">
          <mxGeometry x="-0.6832" y="-30" relative="1" as="geometry">
            <mxPoint x="300" y="970" as="targetPoint" />
            <Array as="points">
              <mxPoint x="300" y="850" />
            </Array>
            <mxPoint as="offset" />
          </mxGeometry>
        </mxCell>
        <mxCell id="m3cECUpOEf3iN09a0m4X-21" value="pc = addPC(pc, SizePC);" style="rounded=1;whiteSpace=wrap;html=1;arcSize=40;fontColor=#000000;fillColor=#ffffc0;strokeColor=#ff0000;" vertex="1" parent="1">
          <mxGeometry x="195" y="680" width="220" height="40" as="geometry" />
        </mxCell>
        <mxCell id="m3cECUpOEf3iN09a0m4X-22" value="" style="edgeStyle=orthogonalEdgeStyle;html=1;verticalAlign=bottom;endArrow=open;endSize=8;strokeColor=#ff0000;" edge="1" source="m3cECUpOEf3iN09a0m4X-21" parent="1">
          <mxGeometry relative="1" as="geometry">
            <mxPoint x="410" y="110" as="targetPoint" />
            <Array as="points">
              <mxPoint x="100" y="700" />
              <mxPoint x="100" y="110" />
            </Array>
          </mxGeometry>
        </mxCell>
        <mxCell id="m3cECUpOEf3iN09a0m4X-26" value="pccomp = addPCcomp(pccomp, SizePCcomp);" style="rounded=1;whiteSpace=wrap;html=1;arcSize=40;fontColor=#000000;fillColor=#ffffc0;strokeColor=#ff0000;" vertex="1" parent="1">
          <mxGeometry x="169" y="900" width="261" height="50" as="geometry" />
        </mxCell>
        <mxCell id="m3cECUpOEf3iN09a0m4X-27" value="" style="edgeStyle=orthogonalEdgeStyle;html=1;verticalAlign=bottom;endArrow=open;endSize=8;strokeColor=#ff0000;" edge="1" source="m3cECUpOEf3iN09a0m4X-26" parent="1">
          <mxGeometry relative="1" as="geometry">
            <mxPoint x="100" y="700" as="targetPoint" />
          </mxGeometry>
        </mxCell>
        <mxCell id="m3cECUpOEf3iN09a0m4X-94" value="printf(&quot;\t\t Вход выполнен \n&quot;);" style="rounded=1;whiteSpace=wrap;html=1;arcSize=40;fontColor=#000000;fillColor=#ffffc0;strokeColor=#ff0000;" vertex="1" parent="1">
          <mxGeometry x="332.5" y="50" width="165" height="40" as="geometry" />
        </mxCell>
        <mxCell id="m3cECUpOEf3iN09a0m4X-95" value="" style="edgeStyle=orthogonalEdgeStyle;html=1;verticalAlign=bottom;endArrow=open;endSize=8;strokeColor=#ff0000;" edge="1" source="m3cECUpOEf3iN09a0m4X-94" parent="1">
          <mxGeometry relative="1" as="geometry">
            <mxPoint x="415" y="130" as="targetPoint" />
          </mxGeometry>
        </mxCell>
        <mxCell id="m3cECUpOEf3iN09a0m4X-98" value="yes" style="edgeStyle=orthogonalEdgeStyle;html=1;align=left;verticalAlign=top;endArrow=open;endSize=8;strokeColor=#ff0000;entryX=0.5;entryY=0;entryDx=0;entryDy=0;" edge="1" target="m3cECUpOEf3iN09a0m4X-100" parent="1">
          <mxGeometry x="-0.6832" y="-30" relative="1" as="geometry">
            <mxPoint x="300" y="970" as="targetPoint" />
            <Array as="points">
              <mxPoint x="300" y="850" />
            </Array>
            <mxPoint as="offset" />
            <mxPoint x="334" y="850" as="sourcePoint" />
          </mxGeometry>
        </mxCell>
        <mxCell id="m3cECUpOEf3iN09a0m4X-99" value="no" style="edgeStyle=orthogonalEdgeStyle;html=1;align=left;verticalAlign=bottom;endArrow=open;endSize=8;strokeColor=#ff0000;" edge="1" parent="1">
          <mxGeometry x="-1" relative="1" as="geometry">
            <mxPoint x="415" y="1040" as="targetPoint" />
            <mxPoint x="494" y="850" as="sourcePoint" />
            <Array as="points">
              <mxPoint x="540" y="850" />
              <mxPoint x="540" y="970" />
              <mxPoint x="415" y="970" />
            </Array>
          </mxGeometry>
        </mxCell>
        <mxCell id="m3cECUpOEf3iN09a0m4X-100" value="pccomp = addPCcomp(pccomp, SizePCcomp);" style="rounded=1;whiteSpace=wrap;html=1;arcSize=40;fontColor=#000000;fillColor=#ffffc0;strokeColor=#ff0000;" vertex="1" parent="1">
          <mxGeometry x="169" y="900" width="261" height="50" as="geometry" />
        </mxCell>
        <mxCell id="m3cECUpOEf3iN09a0m4X-101" value="menu == 3" style="rhombus;whiteSpace=wrap;html=1;fillColor=#ffffc0;strokeColor=#ff0000;" vertex="1" parent="1">
          <mxGeometry x="334" y="1040" width="160" height="80" as="geometry" />
        </mxCell>
        <mxCell id="m3cECUpOEf3iN09a0m4X-102" value="" style="edgeStyle=orthogonalEdgeStyle;html=1;verticalAlign=bottom;endArrow=open;endSize=8;strokeColor=#ff0000;" edge="1" parent="1">
          <mxGeometry relative="1" as="geometry">
            <mxPoint x="100" y="930" as="targetPoint" />
            <mxPoint x="169" y="1155" as="sourcePoint" />
          </mxGeometry>
        </mxCell>
        <mxCell id="m3cECUpOEf3iN09a0m4X-103" value="yes" style="edgeStyle=orthogonalEdgeStyle;html=1;align=left;verticalAlign=top;endArrow=open;endSize=8;strokeColor=#ff0000;entryX=0.5;entryY=0;entryDx=0;entryDy=0;" edge="1" parent="1" target="m3cECUpOEf3iN09a0m4X-105">
          <mxGeometry x="-0.6832" y="-30" relative="1" as="geometry">
            <mxPoint x="300" y="1200" as="targetPoint" />
            <Array as="points">
              <mxPoint x="265" y="1080" />
            </Array>
            <mxPoint as="offset" />
            <mxPoint x="334" y="1080" as="sourcePoint" />
          </mxGeometry>
        </mxCell>
        <mxCell id="m3cECUpOEf3iN09a0m4X-104" value="no" style="edgeStyle=orthogonalEdgeStyle;html=1;align=left;verticalAlign=bottom;endArrow=open;endSize=8;strokeColor=#ff0000;" edge="1" parent="1">
          <mxGeometry x="-1" relative="1" as="geometry">
            <mxPoint x="415" y="1270" as="targetPoint" />
            <mxPoint x="494" y="1080" as="sourcePoint" />
            <Array as="points">
              <mxPoint x="540" y="1080" />
              <mxPoint x="540" y="1200" />
              <mxPoint x="415" y="1200" />
            </Array>
          </mxGeometry>
        </mxCell>
        <mxCell id="m3cECUpOEf3iN09a0m4X-105" value="&lt;div&gt;printf(&quot;Введите код Пк которого вы хотите удалить:\n&quot;);&lt;/div&gt;&lt;div&gt;&lt;span&gt;					&lt;/span&gt;printf(&quot;&amp;gt;&amp;gt;&amp;gt;&quot;);&lt;/div&gt;&lt;div&gt;&lt;span&gt;					&lt;/span&gt;scanf(&quot;%i&quot;, &amp;amp;KOD);&lt;/div&gt;&lt;div&gt;&lt;span&gt;					&lt;/span&gt;pc = delPC(pc, SizePC, KOD);&lt;/div&gt;" style="rounded=1;whiteSpace=wrap;html=1;arcSize=40;fontColor=#000000;fillColor=#ffffc0;strokeColor=#ff0000;" vertex="1" parent="1">
          <mxGeometry x="129.5" y="1120" width="270" height="90" as="geometry" />
        </mxCell>
        <mxCell id="m3cECUpOEf3iN09a0m4X-106" value="menu == 4" style="rhombus;whiteSpace=wrap;html=1;fillColor=#ffffc0;strokeColor=#ff0000;" vertex="1" parent="1">
          <mxGeometry x="334" y="1270" width="160" height="80" as="geometry" />
        </mxCell>
        <mxCell id="m3cECUpOEf3iN09a0m4X-107" value="" style="edgeStyle=orthogonalEdgeStyle;html=1;verticalAlign=bottom;endArrow=open;endSize=8;strokeColor=#ff0000;" edge="1" parent="1">
          <mxGeometry relative="1" as="geometry">
            <mxPoint x="100" y="1160" as="targetPoint" />
            <mxPoint x="169" y="1385" as="sourcePoint" />
          </mxGeometry>
        </mxCell>
        <mxCell id="m3cECUpOEf3iN09a0m4X-108" value="yes" style="edgeStyle=orthogonalEdgeStyle;html=1;align=left;verticalAlign=top;endArrow=open;endSize=8;strokeColor=#ff0000;entryX=0.5;entryY=0;entryDx=0;entryDy=0;" edge="1" parent="1" target="m3cECUpOEf3iN09a0m4X-110">
          <mxGeometry x="-0.6832" y="-30" relative="1" as="geometry">
            <mxPoint x="300" y="1430" as="targetPoint" />
            <Array as="points">
              <mxPoint x="300" y="1310" />
            </Array>
            <mxPoint as="offset" />
            <mxPoint x="334" y="1310" as="sourcePoint" />
          </mxGeometry>
        </mxCell>
        <mxCell id="m3cECUpOEf3iN09a0m4X-109" value="no" style="edgeStyle=orthogonalEdgeStyle;html=1;align=left;verticalAlign=bottom;endArrow=open;endSize=8;strokeColor=#ff0000;" edge="1" parent="1">
          <mxGeometry x="-1" relative="1" as="geometry">
            <mxPoint x="415" y="1500" as="targetPoint" />
            <mxPoint x="494" y="1310" as="sourcePoint" />
            <Array as="points">
              <mxPoint x="540" y="1310" />
              <mxPoint x="540" y="1480" />
              <mxPoint x="415" y="1480" />
            </Array>
          </mxGeometry>
        </mxCell>
        <mxCell id="m3cECUpOEf3iN09a0m4X-110" value="&lt;div&gt;printf(&quot;Введите код комплектующего которого вы хотите удалить:\n&quot;);&lt;/div&gt;&lt;div&gt;&lt;span&gt;					&lt;/span&gt;printf(&quot;&amp;gt;&amp;gt;&amp;gt;&quot;);&lt;/div&gt;&lt;div&gt;&lt;span&gt;					&lt;/span&gt;scanf(&quot;%i&quot;, &amp;amp;KOD);&lt;/div&gt;&lt;div&gt;&lt;span&gt;					&lt;/span&gt;pccomp = delPCcomp(pccomp, SizePCcomp, KOD);&lt;/div&gt;" style="rounded=1;whiteSpace=wrap;html=1;arcSize=40;fontColor=#000000;fillColor=#ffffc0;strokeColor=#ff0000;" vertex="1" parent="1">
          <mxGeometry x="125" y="1360" width="340" height="100" as="geometry" />
        </mxCell>
        <mxCell id="m3cECUpOEf3iN09a0m4X-111" value="menu == 5" style="rhombus;whiteSpace=wrap;html=1;fillColor=#ffffc0;strokeColor=#ff0000;" vertex="1" parent="1">
          <mxGeometry x="334" y="1500" width="160" height="80" as="geometry" />
        </mxCell>
        <mxCell id="m3cECUpOEf3iN09a0m4X-112" value="" style="edgeStyle=orthogonalEdgeStyle;html=1;verticalAlign=bottom;endArrow=open;endSize=8;strokeColor=#ff0000;" edge="1" parent="1">
          <mxGeometry relative="1" as="geometry">
            <mxPoint x="100" y="1380" as="targetPoint" />
            <mxPoint x="169" y="1615" as="sourcePoint" />
          </mxGeometry>
        </mxCell>
        <mxCell id="m3cECUpOEf3iN09a0m4X-113" value="yes" style="edgeStyle=orthogonalEdgeStyle;html=1;align=left;verticalAlign=top;endArrow=open;endSize=8;strokeColor=#ff0000;entryX=0.5;entryY=0;entryDx=0;entryDy=0;" edge="1" parent="1" target="m3cECUpOEf3iN09a0m4X-115">
          <mxGeometry x="-0.6832" y="-30" relative="1" as="geometry">
            <mxPoint x="300" y="1660" as="targetPoint" />
            <Array as="points">
              <mxPoint x="281" y="1540" />
            </Array>
            <mxPoint as="offset" />
            <mxPoint x="334" y="1540" as="sourcePoint" />
          </mxGeometry>
        </mxCell>
        <mxCell id="m3cECUpOEf3iN09a0m4X-114" value="no" style="edgeStyle=orthogonalEdgeStyle;html=1;align=left;verticalAlign=bottom;endArrow=open;endSize=8;strokeColor=#ff0000;" edge="1" parent="1">
          <mxGeometry x="-1" relative="1" as="geometry">
            <mxPoint x="415" y="1730" as="targetPoint" />
            <mxPoint x="494" y="1540" as="sourcePoint" />
            <Array as="points">
              <mxPoint x="540" y="1540" />
              <mxPoint x="540" y="1660" />
              <mxPoint x="415" y="1660" />
            </Array>
          </mxGeometry>
        </mxCell>
        <mxCell id="m3cECUpOEf3iN09a0m4X-115" value="workers = addWork(workers, SizeWork);" style="rounded=1;whiteSpace=wrap;html=1;arcSize=40;fontColor=#000000;fillColor=#ffffc0;strokeColor=#ff0000;" vertex="1" parent="1">
          <mxGeometry x="160" y="1590" width="241" height="50" as="geometry" />
        </mxCell>
        <mxCell id="m3cECUpOEf3iN09a0m4X-116" value="menu == 6" style="rhombus;whiteSpace=wrap;html=1;fillColor=#ffffc0;strokeColor=#ff0000;" vertex="1" parent="1">
          <mxGeometry x="334" y="1730" width="160" height="80" as="geometry" />
        </mxCell>
        <mxCell id="m3cECUpOEf3iN09a0m4X-117" value="" style="edgeStyle=orthogonalEdgeStyle;html=1;verticalAlign=bottom;endArrow=open;endSize=8;strokeColor=#ff0000;" edge="1" parent="1">
          <mxGeometry relative="1" as="geometry">
            <mxPoint x="100" y="1600" as="targetPoint" />
            <mxPoint x="169" y="1845" as="sourcePoint" />
          </mxGeometry>
        </mxCell>
        <mxCell id="m3cECUpOEf3iN09a0m4X-118" value="yes" style="edgeStyle=orthogonalEdgeStyle;html=1;align=left;verticalAlign=top;endArrow=open;endSize=8;strokeColor=#ff0000;entryX=0.5;entryY=0;entryDx=0;entryDy=0;" edge="1" parent="1" target="m3cECUpOEf3iN09a0m4X-120">
          <mxGeometry x="-0.6832" y="-30" relative="1" as="geometry">
            <mxPoint x="300" y="1890" as="targetPoint" />
            <Array as="points">
              <mxPoint x="265" y="1770" />
            </Array>
            <mxPoint as="offset" />
            <mxPoint x="334" y="1770" as="sourcePoint" />
          </mxGeometry>
        </mxCell>
        <mxCell id="m3cECUpOEf3iN09a0m4X-119" value="no" style="edgeStyle=orthogonalEdgeStyle;html=1;align=left;verticalAlign=bottom;endArrow=open;endSize=8;strokeColor=#ff0000;" edge="1" parent="1">
          <mxGeometry x="-1" relative="1" as="geometry">
            <mxPoint x="415" y="1960" as="targetPoint" />
            <mxPoint x="494" y="1770" as="sourcePoint" />
            <Array as="points">
              <mxPoint x="540" y="1770" />
              <mxPoint x="540" y="1890" />
              <mxPoint x="415" y="1890" />
            </Array>
          </mxGeometry>
        </mxCell>
        <mxCell id="m3cECUpOEf3iN09a0m4X-120" value="&lt;div&gt;printf(&quot;Введите код сотрудника которого нужно уволить:\n&quot;);&lt;/div&gt;&lt;div&gt;&lt;span&gt;					&lt;/span&gt;printf(&quot;&amp;gt;&amp;gt;&amp;gt;&quot;);&lt;/div&gt;&lt;div&gt;&lt;span&gt;					&lt;/span&gt;scanf(&quot;%i&quot;, &amp;amp;KOD);&lt;/div&gt;&lt;div&gt;&lt;span&gt;					&lt;/span&gt;delWork(workers, SizeWork, KOD);&lt;/div&gt;" style="rounded=1;whiteSpace=wrap;html=1;arcSize=25;fontColor=#000000;fillColor=#ffffc0;strokeColor=#ff0000;" vertex="1" parent="1">
          <mxGeometry x="125" y="1810" width="280" height="100" as="geometry" />
        </mxCell>
        <mxCell id="m3cECUpOEf3iN09a0m4X-121" value="menu == 7" style="rhombus;whiteSpace=wrap;html=1;fillColor=#ffffc0;strokeColor=#ff0000;" vertex="1" parent="1">
          <mxGeometry x="334" y="1960" width="160" height="80" as="geometry" />
        </mxCell>
        <mxCell id="m3cECUpOEf3iN09a0m4X-122" value="" style="edgeStyle=orthogonalEdgeStyle;html=1;verticalAlign=bottom;endArrow=open;endSize=8;strokeColor=#ff0000;" edge="1" parent="1">
          <mxGeometry relative="1" as="geometry">
            <mxPoint x="100" y="1840" as="targetPoint" />
            <mxPoint x="169" y="2075" as="sourcePoint" />
          </mxGeometry>
        </mxCell>
        <mxCell id="m3cECUpOEf3iN09a0m4X-123" value="yes" style="edgeStyle=orthogonalEdgeStyle;html=1;align=left;verticalAlign=top;endArrow=open;endSize=8;strokeColor=#ff0000;entryX=0.5;entryY=0;entryDx=0;entryDy=0;" edge="1" parent="1" target="m3cECUpOEf3iN09a0m4X-125">
          <mxGeometry x="-0.6832" y="-30" relative="1" as="geometry">
            <mxPoint x="300" y="2120" as="targetPoint" />
            <Array as="points">
              <mxPoint x="265" y="2000" />
            </Array>
            <mxPoint as="offset" />
            <mxPoint x="334" y="2000" as="sourcePoint" />
          </mxGeometry>
        </mxCell>
        <mxCell id="m3cECUpOEf3iN09a0m4X-124" value="no" style="edgeStyle=orthogonalEdgeStyle;html=1;align=left;verticalAlign=bottom;endArrow=open;endSize=8;strokeColor=#ff0000;" edge="1" parent="1">
          <mxGeometry x="-1" relative="1" as="geometry">
            <mxPoint x="415" y="2190" as="targetPoint" />
            <mxPoint x="494" y="2000" as="sourcePoint" />
            <Array as="points">
              <mxPoint x="540" y="2000" />
              <mxPoint x="540" y="2120" />
              <mxPoint x="415" y="2120" />
            </Array>
          </mxGeometry>
        </mxCell>
        <mxCell id="m3cECUpOEf3iN09a0m4X-125" value="printWork(workers, SizeWork);" style="rounded=1;whiteSpace=wrap;html=1;arcSize=40;fontColor=#000000;fillColor=#ffffc0;strokeColor=#ff0000;" vertex="1" parent="1">
          <mxGeometry x="169" y="2050" width="191" height="50" as="geometry" />
        </mxCell>
        <mxCell id="m3cECUpOEf3iN09a0m4X-126" value="menu == 8" style="rhombus;whiteSpace=wrap;html=1;fillColor=#ffffc0;strokeColor=#ff0000;" vertex="1" parent="1">
          <mxGeometry x="334" y="2190" width="160" height="80" as="geometry" />
        </mxCell>
        <mxCell id="m3cECUpOEf3iN09a0m4X-127" value="" style="edgeStyle=orthogonalEdgeStyle;html=1;verticalAlign=bottom;endArrow=open;endSize=8;strokeColor=#ff0000;" edge="1" parent="1">
          <mxGeometry relative="1" as="geometry">
            <mxPoint x="100" y="2080" as="targetPoint" />
            <mxPoint x="169" y="2305" as="sourcePoint" />
          </mxGeometry>
        </mxCell>
        <mxCell id="m3cECUpOEf3iN09a0m4X-128" value="yes" style="edgeStyle=orthogonalEdgeStyle;html=1;align=left;verticalAlign=top;endArrow=open;endSize=8;strokeColor=#ff0000;entryX=0.5;entryY=0;entryDx=0;entryDy=0;" edge="1" parent="1" target="m3cECUpOEf3iN09a0m4X-130">
          <mxGeometry x="-0.6832" y="-30" relative="1" as="geometry">
            <mxPoint x="300" y="2350" as="targetPoint" />
            <Array as="points">
              <mxPoint x="300" y="2230" />
            </Array>
            <mxPoint as="offset" />
            <mxPoint x="334" y="2230" as="sourcePoint" />
          </mxGeometry>
        </mxCell>
        <mxCell id="m3cECUpOEf3iN09a0m4X-129" value="no" style="edgeStyle=orthogonalEdgeStyle;html=1;align=left;verticalAlign=bottom;endArrow=open;endSize=8;strokeColor=#ff0000;" edge="1" parent="1">
          <mxGeometry x="-1" relative="1" as="geometry">
            <mxPoint x="415" y="2420" as="targetPoint" />
            <mxPoint x="494" y="2230" as="sourcePoint" />
            <Array as="points">
              <mxPoint x="540" y="2230" />
              <mxPoint x="540" y="2350" />
              <mxPoint x="415" y="2350" />
            </Array>
          </mxGeometry>
        </mxCell>
        <mxCell id="m3cECUpOEf3iN09a0m4X-130" value="&lt;div&gt;printPC(pc, SizePC);&lt;/div&gt;&lt;div&gt;&lt;span&gt;					&lt;/span&gt;printPCcomp(pccomp, SizePCcomp);&lt;/div&gt;" style="rounded=1;whiteSpace=wrap;html=1;arcSize=40;fontColor=#000000;fillColor=#ffffc0;strokeColor=#ff0000;" vertex="1" parent="1">
          <mxGeometry x="169" y="2280" width="261" height="50" as="geometry" />
        </mxCell>
        <mxCell id="m3cECUpOEf3iN09a0m4X-131" value="menu == 9" style="rhombus;whiteSpace=wrap;html=1;fillColor=#ffffc0;strokeColor=#ff0000;" vertex="1" parent="1">
          <mxGeometry x="334" y="2420" width="160" height="80" as="geometry" />
        </mxCell>
        <mxCell id="m3cECUpOEf3iN09a0m4X-132" value="" style="edgeStyle=orthogonalEdgeStyle;html=1;verticalAlign=bottom;endArrow=open;endSize=8;strokeColor=#ff0000;" edge="1" parent="1">
          <mxGeometry relative="1" as="geometry">
            <mxPoint x="100" y="2300" as="targetPoint" />
            <mxPoint x="169" y="2535" as="sourcePoint" />
          </mxGeometry>
        </mxCell>
        <mxCell id="m3cECUpOEf3iN09a0m4X-133" value="yes" style="edgeStyle=orthogonalEdgeStyle;html=1;align=left;verticalAlign=top;endArrow=open;endSize=8;strokeColor=#ff0000;entryX=0.5;entryY=0;entryDx=0;entryDy=0;" edge="1" parent="1" target="m3cECUpOEf3iN09a0m4X-135">
          <mxGeometry x="-0.6832" y="-30" relative="1" as="geometry">
            <mxPoint x="300" y="2580" as="targetPoint" />
            <Array as="points">
              <mxPoint x="300" y="2460" />
            </Array>
            <mxPoint as="offset" />
            <mxPoint x="334" y="2460" as="sourcePoint" />
          </mxGeometry>
        </mxCell>
        <mxCell id="m3cECUpOEf3iN09a0m4X-134" value="no" style="edgeStyle=orthogonalEdgeStyle;html=1;align=left;verticalAlign=bottom;endArrow=open;endSize=8;strokeColor=#ff0000;" edge="1" parent="1">
          <mxGeometry x="-1" relative="1" as="geometry">
            <mxPoint x="415" y="2650" as="targetPoint" />
            <mxPoint x="494" y="2460" as="sourcePoint" />
            <Array as="points">
              <mxPoint x="540" y="2460" />
              <mxPoint x="540" y="2580" />
              <mxPoint x="415" y="2580" />
            </Array>
          </mxGeometry>
        </mxCell>
        <mxCell id="m3cECUpOEf3iN09a0m4X-135" value="printArchivePC(archivepc, SizeArchivePC);" style="rounded=1;whiteSpace=wrap;html=1;arcSize=40;fontColor=#000000;fillColor=#ffffc0;strokeColor=#ff0000;" vertex="1" parent="1">
          <mxGeometry x="169" y="2510" width="261" height="50" as="geometry" />
        </mxCell>
        <mxCell id="m3cECUpOEf3iN09a0m4X-136" value="menu == 10" style="rhombus;whiteSpace=wrap;html=1;fillColor=#ffffc0;strokeColor=#ff0000;" vertex="1" parent="1">
          <mxGeometry x="334" y="2650" width="160" height="80" as="geometry" />
        </mxCell>
        <mxCell id="m3cECUpOEf3iN09a0m4X-137" value="" style="edgeStyle=orthogonalEdgeStyle;html=1;verticalAlign=bottom;endArrow=open;endSize=8;strokeColor=#ff0000;" edge="1" parent="1">
          <mxGeometry relative="1" as="geometry">
            <mxPoint x="100" y="2540" as="targetPoint" />
            <mxPoint x="169" y="2765" as="sourcePoint" />
            <Array as="points">
              <mxPoint x="169" y="2790" />
              <mxPoint x="100" y="2790" />
            </Array>
          </mxGeometry>
        </mxCell>
        <mxCell id="m3cECUpOEf3iN09a0m4X-138" value="yes" style="edgeStyle=orthogonalEdgeStyle;html=1;align=left;verticalAlign=top;endArrow=open;endSize=8;strokeColor=#ff0000;entryX=0.5;entryY=0;entryDx=0;entryDy=0;" edge="1" parent="1" target="m3cECUpOEf3iN09a0m4X-140">
          <mxGeometry x="-0.6832" y="-30" relative="1" as="geometry">
            <mxPoint x="300" y="2810" as="targetPoint" />
            <Array as="points">
              <mxPoint x="325" y="2690" />
            </Array>
            <mxPoint as="offset" />
            <mxPoint x="334" y="2690" as="sourcePoint" />
          </mxGeometry>
        </mxCell>
        <mxCell id="m3cECUpOEf3iN09a0m4X-139" value="no" style="edgeStyle=orthogonalEdgeStyle;html=1;align=left;verticalAlign=bottom;endArrow=open;endSize=8;strokeColor=#ff0000;" edge="1" parent="1">
          <mxGeometry x="-1" relative="1" as="geometry">
            <mxPoint x="100" y="2790" as="targetPoint" />
            <mxPoint x="494" y="2690" as="sourcePoint" />
            <Array as="points">
              <mxPoint x="540" y="2690" />
              <mxPoint x="540" y="2890" />
              <mxPoint x="100" y="2890" />
            </Array>
          </mxGeometry>
        </mxCell>
        <mxCell id="m3cECUpOEf3iN09a0m4X-140" value="printArchivePCcomp(archivepccomp, SizeArchivePCcomp);" style="rounded=1;whiteSpace=wrap;html=1;arcSize=40;fontColor=#000000;fillColor=#ffffc0;strokeColor=#ff0000;" vertex="1" parent="1">
          <mxGeometry x="160" y="2760" width="330" height="50" as="geometry" />
        </mxCell>
      </root>
    </mxGraphModel>
  </diagram>
</mxfile>
